<svg width="24" height="25" viewBox="0 0 24 25" fill="none" xmlns="http://www.w3.org/2000/svg">
<path d="M20.1818 2.5H3.81818C2.81403 2.5 2 3.31498 2 4.31914C2 4.3449 2 4.36298 2 4.37198V20.7356C2 21.7101 2.79089 22.5 3.76533 22.5C3.79099 22.5 3.80908 22.5 3.81818 22.5H20.1818C20.1909 22.5 20.209 22.5 20.2347 22.5C21.2091 22.5 22 21.7101 22 20.7356V4.37195C22 4.36296 22 4.34488 22 4.31914C22 3.31498 21.186 2.5 20.1818 2.5ZM13.8182 20.7356H3.81818V13.4629H13.8182V20.7356ZM13.8182 11.6447H3.81818V4.37198L13.8182 4.37195V11.6447ZM20.1818 20.7356H15.6364V4.37198H20.1818V20.7356Z" fill="#CDCDCD"/>
</svg>
